<svg xmlns="http://www.w3.org/2000/svg" viewBox="0 0 430.8 377" width="430.8" height="377" role="img"><rect width="430.8" height="377" fill="#ffffff"></rect><defs><marker id="mermaid-arrow" viewBox="0 0 10 10" refX="10" refY="5" markerWidth="8" markerHeight="8" orient="auto"><path d="M 0 0 L 10 5 L 0 10 Z" fill="#333333"></path></marker><marker id="mermaid-arrow-inherit" viewBox="0 0 10 10" refX="10" refY="5" markerWidth="10" markerHeight="10" orient="auto"><path d="M 0 0 L 10 5 L 0 10 Z" fill="#ffffff" stroke="#333333" stroke-width="1"></path></marker><marker id="mermaid-diamond" viewBox="0 0 12 8" refX="12" refY="4" markerWidth="12" markerHeight="8" orient="auto"><path d="M 0 4 L 6 0 L 12 4 L 6 8 Z" fill="#333333"></path></marker><marker id="mermaid-diamond-open" viewBox="0 0 12 8" refX="12" refY="4" markerWidth="12" markerHeight="8" orient="auto"><path d="M 0 4 L 6 0 L 12 4 L 6 8 Z" fill="#ffffff" stroke="#333333" stroke-width="1"></path></marker></defs><g transform="translate(20, 20)"><g><path d="M 98.4,145 L 98.4,225" fill="none" stroke="#666666" stroke-width="1.5" marker-end="url(#mermaid-arrow-inherit)"></path></g><g><path d="M 158.8,145 L 158.8,155 L 312.8,155 L 312.8,225" fill="none" stroke="#666666" stroke-width="1.5" marker-end="url(#mermaid-arrow-inherit)"></path></g><g><rect x="38" y="12" width="181.20000000000002" height="133" fill="#eeeeee" stroke="#999999" stroke-width="1.5"></rect><text x="128.60000000000002" y="28.5" text-anchor="middle" dominant-baseline="central" font-weight="bold" font-size="14" font-family="&quot;trebuchet ms&quot;, verdana, arial, sans-serif" fill="#111111">Animal</text><line x1="38" y1="45" x2="219.20000000000002" y2="45" stroke="#999999" stroke-width="1"></line><text x="46" y="63.7" font-size="11.9" font-family="&quot;trebuchet ms&quot;, verdana, arial, sans-serif" fill="#111111">+int age</text><text x="46" y="84.69999999999999" font-size="11.9" font-family="&quot;trebuchet ms&quot;, verdana, arial, sans-serif" fill="#111111">+String gender</text><line x1="38" y1="95" x2="219.20000000000002" y2="95" stroke="#999999" stroke-width="1"></line><text x="46" y="113.7" font-size="11.9" font-family="&quot;trebuchet ms&quot;, verdana, arial, sans-serif" fill="#111111">+isMammal() : bool</text><text x="46" y="134.7" font-size="11.9" font-family="&quot;trebuchet ms&quot;, verdana, arial, sans-serif" fill="#111111">+mate()</text></g><g><rect x="12" y="225" width="172.8" height="112" fill="#eeeeee" stroke="#999999" stroke-width="1.5"></rect><text x="98.4" y="241.5" text-anchor="middle" dominant-baseline="central" font-weight="bold" font-size="14" font-family="&quot;trebuchet ms&quot;, verdana, arial, sans-serif" fill="#111111">Duck</text><line x1="12" y1="258" x2="184.8" y2="258" stroke="#999999" stroke-width="1"></line><text x="20" y="276.7" font-size="11.9" font-family="&quot;trebuchet ms&quot;, verdana, arial, sans-serif" fill="#111111">+String beakColor</text><line x1="12" y1="287" x2="184.8" y2="287" stroke="#999999" stroke-width="1"></line><text x="20" y="305.7" font-size="11.9" font-family="&quot;trebuchet ms&quot;, verdana, arial, sans-serif" fill="#111111">+swim()</text><text x="20" y="326.7" font-size="11.9" font-family="&quot;trebuchet ms&quot;, verdana, arial, sans-serif" fill="#111111">+quack()</text></g><g><rect x="234.8" y="225" width="156" height="91" fill="#eeeeee" stroke="#999999" stroke-width="1.5"></rect><text x="312.8" y="241.5" text-anchor="middle" dominant-baseline="central" font-weight="bold" font-size="14" font-family="&quot;trebuchet ms&quot;, verdana, arial, sans-serif" fill="#111111">Fish</text><line x1="234.8" y1="258" x2="390.8" y2="258" stroke="#999999" stroke-width="1"></line><text x="242.8" y="276.7" font-size="11.9" font-family="&quot;trebuchet ms&quot;, verdana, arial, sans-serif" fill="#111111">-int sizeInFeet</text><line x1="234.8" y1="287" x2="390.8" y2="287" stroke="#999999" stroke-width="1"></line><text x="242.8" y="305.7" font-size="11.9" font-family="&quot;trebuchet ms&quot;, verdana, arial, sans-serif" fill="#111111">+canEat()</text></g></g></svg>