<svg xmlns="http://www.w3.org/2000/svg" viewBox="0 0 500 380" width="500" height="380" role="img"><rect width="500" height="380" fill="#333333"></rect><text x="250" y="24" text-anchor="middle" font-size="16.8" font-weight="bold" font-family="&quot;trebuchet ms&quot;, verdana, arial, sans-serif" fill="#e0dfdf">Pets adopted</text><path d="M 170,210 L 170,60 A 150,150 0 1 1 25.757413020522648,168.84084425710472 Z" fill="#4e79a7" stroke="#333333" stroke-width="2"></path><path d="M 170,210 L 25.757413020522648,168.84084425710472 A 150,150 0 0 1 141.09316091778658,62.8117034058923 Z" fill="#f28e2c" stroke="#333333" stroke-width="2"></path><path d="M 170,210 L 141.09316091778658,62.8117034058923 A 150,150 0 0 1 169.99999999999997,60 Z" fill="#e15759" stroke="#333333" stroke-width="2"></path><text x="228.72728711933667" y="287.82901610326957" text-anchor="middle" dominant-baseline="central" font-size="11.200000000000001" font-weight="bold" font-family="&quot;trebuchet ms&quot;, verdana, arial, sans-serif" fill="#fff">79.4%</text><text x="104.01387212584697" y="138.22200247864305" text-anchor="middle" dominant-baseline="central" font-size="11.200000000000001" font-weight="bold" font-family="&quot;trebuchet ms&quot;, verdana, arial, sans-serif" fill="#fff">17.5%</text><g><rect x="350" y="177" width="14" height="14" fill="#4e79a7" rx="2"></rect><text x="370" y="187" font-size="11.9" font-family="&quot;trebuchet ms&quot;, verdana, arial, sans-serif" fill="#e0dfdf">Dogs</text></g><g><rect x="350" y="199" width="14" height="14" fill="#f28e2c" rx="2"></rect><text x="370" y="209" font-size="11.9" font-family="&quot;trebuchet ms&quot;, verdana, arial, sans-serif" fill="#e0dfdf">Cats</text></g><g><rect x="350" y="221" width="14" height="14" fill="#e15759" rx="2"></rect><text x="370" y="231" font-size="11.9" font-family="&quot;trebuchet ms&quot;, verdana, arial, sans-serif" fill="#e0dfdf">Rats</text></g></svg>