<svg xmlns="http://www.w3.org/2000/svg" viewBox="0 0 440 320" width="440" height="320" role="img"><rect width="440" height="320" fill="#ffffff"></rect><defs><marker id="mermaid-arrow" viewBox="0 0 10 10" refX="10" refY="5" markerWidth="8" markerHeight="8" orient="auto"><path d="M 0 0 L 10 5 L 0 10 Z" fill="#333333"></path></marker></defs><g><rect x="40" y="20" width="120" height="40" fill="#ECECFF" stroke="#9370DB" stroke-width="1.5" rx="5" ry="5"></rect><text x="100" y="40" text-anchor="middle" dominant-baseline="central" font-size="14" font-family="&quot;trebuchet ms&quot;, verdana, arial, sans-serif" fill="#131300">Alice</text><line x1="100" y1="60" x2="100" y2="240" stroke="#333333" stroke-width="1" stroke-dasharray="4,4"></line><rect x="40" y="240" width="120" height="40" fill="#ECECFF" stroke="#9370DB" stroke-width="1.5" rx="5" ry="5"></rect><text x="100" y="260" text-anchor="middle" dominant-baseline="central" font-size="14" font-family="&quot;trebuchet ms&quot;, verdana, arial, sans-serif" fill="#131300">Alice</text></g><g><rect x="220" y="20" width="120" height="40" fill="#ECECFF" stroke="#9370DB" stroke-width="1.5" rx="5" ry="5"></rect><text x="280" y="40" text-anchor="middle" dominant-baseline="central" font-size="14" font-family="&quot;trebuchet ms&quot;, verdana, arial, sans-serif" fill="#131300">Bob</text><line x1="280" y1="60" x2="280" y2="240" stroke="#333333" stroke-width="1" stroke-dasharray="4,4"></line><rect x="220" y="240" width="120" height="40" fill="#ECECFF" stroke="#9370DB" stroke-width="1.5" rx="5" ry="5"></rect><text x="280" y="260" text-anchor="middle" dominant-baseline="central" font-size="14" font-family="&quot;trebuchet ms&quot;, verdana, arial, sans-serif" fill="#131300">Bob</text></g><g><line x1="100" y1="90" x2="280" y2="90" stroke="#333333" stroke-width="1.5" marker-end="url(#mermaid-arrow)"></line><text x="190" y="82" text-anchor="middle" font-size="11.9" font-family="&quot;trebuchet ms&quot;, verdana, arial, sans-serif" fill="#131300">Hello Bob, how are you?</text></g><g><line x1="280" y1="140" x2="100" y2="140" stroke="#333333" stroke-width="1.5" stroke-dasharray="5,5" marker-end="url(#mermaid-arrow)"></line><text x="190" y="132" text-anchor="middle" font-size="11.9" font-family="&quot;trebuchet ms&quot;, verdana, arial, sans-serif" fill="#131300">Great!</text></g><g><line x1="100" y1="190" x2="280" y2="190" stroke="#333333" stroke-width="1.5" marker-end="url(#mermaid-arrow)"></line><text x="190" y="182" text-anchor="middle" font-size="11.9" font-family="&quot;trebuchet ms&quot;, verdana, arial, sans-serif" fill="#131300">See you later!</text></g></svg>