<svg xmlns="http://www.w3.org/2000/svg" viewBox="0 0 252 580" width="252" height="580" role="img"><rect width="252" height="580" fill="#333333"></rect><defs><marker id="mermaid-arrow" viewBox="0 0 10 10" refX="10" refY="5" markerWidth="8" markerHeight="8" orient="auto"><path d="M 0 0 L 10 5 L 0 10 Z" fill="#d3d3d3"></path></marker></defs><g transform="translate(20, 20)"><g><path d="M 52,36 L 52,96" fill="none" stroke="#d3d3d3" stroke-width="1.5" marker-end="url(#mermaid-arrow)"></path></g><g><path d="M 65.33333333333334,136 L 65.33333333333334,146 L 136.66666666666669,146 L 136.66666666666669,256" fill="none" stroke="#d3d3d3" stroke-width="1.5" marker-end="url(#mermaid-arrow)"></path><text x="141.66666666666669" y="141" font-size="11.9" font-family="&quot;trebuchet ms&quot;, verdana, arial, sans-serif" fill="#e0dfdf">submit</text></g><g><path d="M 155.66666666666669,296 L 155.66666666666669,306 L 172,306 L 172,416" fill="none" stroke="#d3d3d3" stroke-width="1.5" marker-end="url(#mermaid-arrow)"></path><text x="177" y="301" font-size="11.9" font-family="&quot;trebuchet ms&quot;, verdana, arial, sans-serif" fill="#e0dfdf">complete</text></g><g><path d="M 117.66666666666667,296 L 117.66666666666667,366 L 65.33333333333334,366 L 65.33333333333334,416" fill="none" stroke="#d3d3d3" stroke-width="1.5" marker-end="url(#mermaid-arrow)"></path><text x="70.33333333333334" y="361" font-size="11.9" font-family="&quot;trebuchet ms&quot;, verdana, arial, sans-serif" fill="#e0dfdf">fail</text></g><g><path d="M 38.66666666666667,416 L 38.66666666666667,136" fill="none" stroke="#d3d3d3" stroke-width="1.5" marker-end="url(#mermaid-arrow)"></path><text x="43.66666666666667" y="131" font-size="11.9" font-family="&quot;trebuchet ms&quot;, verdana, arial, sans-serif" fill="#e0dfdf">retry</text></g><g><path d="M 172,456 L 172,516" fill="none" stroke="#d3d3d3" stroke-width="1.5" marker-end="url(#mermaid-arrow)"></path></g><circle cx="52" cy="24" r="12" fill="#d3d3d3"></circle><g><rect x="12" y="96" width="80" height="40" fill="#1f2020" stroke="#cccccc" stroke-width="1.5" rx="12" ry="12"></rect><text x="52" y="116" text-anchor="middle" dominant-baseline="central" font-size="14" font-family="&quot;trebuchet ms&quot;, verdana, arial, sans-serif" fill="#e0dfdf">Idle</text></g><g><rect x="79.66666666666667" y="256" width="114" height="40" fill="#1f2020" stroke="#cccccc" stroke-width="1.5" rx="12" ry="12"></rect><text x="136.66666666666669" y="276" text-anchor="middle" dominant-baseline="central" font-size="14" font-family="&quot;trebuchet ms&quot;, verdana, arial, sans-serif" fill="#e0dfdf">Processing</text></g><g><rect x="132" y="416" width="80" height="40" fill="#1f2020" stroke="#cccccc" stroke-width="1.5" rx="12" ry="12"></rect><text x="172" y="436" text-anchor="middle" dominant-baseline="central" font-size="14" font-family="&quot;trebuchet ms&quot;, verdana, arial, sans-serif" fill="#e0dfdf">Done</text></g><g><rect x="12" y="416" width="80" height="40" fill="#1f2020" stroke="#cccccc" stroke-width="1.5" rx="12" ry="12"></rect><text x="52" y="436" text-anchor="middle" dominant-baseline="central" font-size="14" font-family="&quot;trebuchet ms&quot;, verdana, arial, sans-serif" fill="#e0dfdf">Error</text></g><g><circle cx="172" cy="528" r="12" fill="none" stroke="#d3d3d3" stroke-width="2"></circle><circle cx="172" cy="528" r="8" fill="#d3d3d3"></circle></g></g></svg>